<?xml version="1.0" encoding="UTF-8"?>
<svg xmlns="http://www.w3.org/2000/svg" xmlns:xlink="http://www.w3.org/1999/xlink" width="475" height="485" viewBox="0 0 475 485">
<defs>
<clipPath id="clip-0">
<path clip-rule="nonzero" d="M 72 194 L 404 194 L 404 329 L 72 329 Z M 72 194 "/>
</clipPath>
<clipPath id="clip-1">
<path clip-rule="nonzero" d="M 72.34375 222.089844 C 98.03125 197.753906 130.046875 192.785156 157.089844 218.050781 C 164.929688 225.113281 184.136719 252.707031 187.492188 257.128906 C 216.328125 295.945312 260.09375 329.648438 310.617188 328.316406 C 323.152344 327.917969 335.691406 325.613281 347.398438 321.140625 C 374.921875 309.351562 401.15625 284.96875 403.554688 253.835938 C 393.992188 281.4375 369.207031 299.574219 342.789062 309.050781 C 304.628906 321.710938 265.03125 309.820312 234.054688 285.164062 C 220.582031 274.699219 208.476562 262.460938 197.707031 249.21875 C 194.121094 244.773438 172.824219 217.480469 163.675781 210.238281 C 150.753906 199.683594 136.777344 194.652344 123.144531 194.648438 C 104.335938 194.648438 86.179688 204.226562 72.34375 222.089844 "/>
</clipPath>
<linearGradient id="linear-pattern-0" gradientUnits="userSpaceOnUse" x1="-0.0733265" y1="0" x2="1.138154" y2="0" gradientTransform="matrix(193.180969, 193.180969, -193.180969, 193.180969, 146.724152, 146.737422)"><stop offset="0" stop-color="#34167f"/><stop offset="1" stop-color="#077693"/></linearGradient>
<clipPath id="clip-2">
<path clip-rule="nonzero" d="M 7 8 L 458 8 L 458 359 L 7 359 Z M 7 8 "/>
</clipPath>
<clipPath id="clip-3">
<path clip-rule="nonzero" d="M 264.464844 9.519531 C 248.273438 9.695312 235.238281 23.4375 235.234375 39.515625 C 235.195312 116.59375 235.1875 180.867188 235.214844 257.945312 C 235.21875 263.132812 302.742188 337.65625 373.566406 282.621094 C 417.96875 248.117188 387.4375 187.222656 368.273438 170.210938 C 365.660156 167.996094 362.878906 165.816406 361.355469 164.664062 C 354.363281 159.375 343.839844 153.460938 337.988281 150.273438 C 334.921875 148.601562 333.253906 149.378906 333.097656 153.019531 C 332.726562 161.804688 332.316406 170.589844 331.859375 179.371094 C 331.773438 181.039062 332.445312 183.503906 329.957031 183.722656 C 327.824219 183.910156 327.160156 181.710938 326.789062 179.957031 C 324.683594 169.953125 322.421875 159.972656 320.707031 149.898438 C 319.867188 144.96875 318.035156 141.65625 313.023438 140.09375 C 307.46875 138.359375 302.617188 135.246094 298.722656 130.839844 C 297.667969 129.648438 296.457031 128.273438 297.296875 126.523438 C 298.023438 125.011719 299.683594 125.078125 301.089844 125.015625 C 306.96875 124.753906 312.679688 125.964844 317.511719 129.136719 C 321.117188 131.507812 324.03125 131.480469 327.402344 129.390625 C 336.246094 123.90625 345.101562 118.441406 353.949219 112.96875 C 354.863281 112.402344 355.703125 111.683594 356.675781 111.25 C 358.359375 110.5 360.457031 109.890625 361.648438 111.523438 C 362.917969 113.261719 360.839844 114.34375 359.800781 115.421875 C 353.808594 121.609375 347.8125 127.796875 341.710938 133.878906 C 338.769531 136.808594 338.84375 138.613281 342.835938 140.59375 C 347.519531 142.921875 353.839844 146.8125 360.28125 151.421875 C 360.285156 151.425781 360.289062 151.425781 360.296875 151.429688 C 420.296875 192.160156 420.660156 235.527344 420.660156 235.527344 C 424.648438 281.992188 389.710938 312.75 389.710938 312.75 C 358.085938 342.011719 310.878906 342.996094 275.394531 335.992188 C 265.386719 333.832031 241.097656 326.699219 212.957031 298.894531 C 190.808594 277.714844 161.355469 239.046875 161.355469 239.046875 C 135.753906 205.625 113.082031 213.625 98.601562 221.140625 C 95.445312 222.78125 86.558594 228.71875 86.558594 228.71875 C 99.445312 232.132812 108.960938 243.839844 108.960938 257.800781 L 108.960938 258.578125 C 108.960938 275.875 95.058594 289.773438 77.914062 289.773438 L 34.230469 289.773438 C 33.585938 289.773438 42.296875 289.746094 23.816406 289.707031 C 14.539062 289.683594 7.019531 297.191406 7.019531 306.464844 C 7.019531 317.570312 7.019531 332.019531 7.019531 342.898438 C 7.019531 351.597656 14.070312 358.648438 22.769531 358.648438 L 126.484375 358.648438 C 128.652344 358.648438 130.800781 358.554688 132.941406 358.402344 L 263.203125 358.402344 C 264.460938 358.535156 265.734375 358.625 267.039062 358.628906 C 281.941406 358.664062 296.839844 358.636719 311.738281 358.636719 L 311.738281 358.605469 C 324.304688 358.605469 336.871094 358.5 349.4375 358.628906 C 375.609375 358.890625 398.996094 350.8125 419.066406 334.234375 C 440.039062 316.910156 453.300781 294.929688 456.546875 267.40625 C 458.148438 253.839844 457.324219 240.472656 453.644531 227.410156 C 451.738281 220.652344 449.40625 214.023438 446.257812 207.761719 L 446.265625 207.753906 C 446.265625 207.753906 446.199219 207.632812 446.101562 207.460938 C 444.464844 204.238281 442.621094 201.105469 440.476562 198.117188 C 440.246094 197.796875 440.023438 197.511719 439.804688 197.265625 C 435.28125 190.398438 428.902344 181.605469 422.378906 175.539062 C 439.632812 157.929688 451.582031 133.515625 451.109375 107.390625 C 450.144531 54.199219 410.328125 12.648438 357.613281 9.777344 C 344.917969 9.085938 332.195312 8.859375 319.460938 8.859375 C 301.136719 8.859375 282.785156 9.324219 264.464844 9.519531 "/>
</clipPath>
<linearGradient id="linear-pattern-1" gradientUnits="userSpaceOnUse" x1="-0.501146" y1="0" x2="1.127981" y2="0" gradientTransform="matrix(245.886307, 245.886307, -245.886307, 245.886307, 141.585449, 120.743281)"><stop offset="0" stop-color="#34167f"/><stop offset="1" stop-color="#077693"/></linearGradient>
</defs>
<path fill-rule="nonzero" fill="#34167f" fill-opacity="1" d="M 23.808594 82.300781 C 49.796875 82.253906 60.917969 82.1875 61.628906 82.1875 L 77.914062 82.1875 C 95.058594 82.1875 108.957031 96.085938 108.957031 113.230469 C 108.957031 130.375 95.058594 144.269531 77.914062 144.261719 C 70.367188 144.257812 62.425781 144.257812 55.3125 144.253906 C 53.980469 144.253906 52.679688 144.363281 51.414062 144.578125 C 40.445312 146.425781 32.09375 155.972656 32.09375 167.46875 L 32.09375 203.527344 C 32.09375 213.570312 36.253906 220.839844 50.667969 220.65625 C 51.648438 220.644531 52.671875 220.597656 53.75 220.511719 C 75.949219 193.828125 102.960938 186.472656 102.960938 186.472656 C 125.277344 178.863281 143.925781 179.546875 162.683594 183.992188 C 177.730469 177.746094 190.726562 167.566406 200.40625 154.742188 C 211.882812 139.546875 218.699219 120.632812 218.699219 100.117188 C 218.699219 49.980469 178.054688 9.335938 127.917969 9.335938 L 127.917969 8.859375 L 22.769531 8.859375 C 14.070312 8.859375 7.019531 15.914062 7.019531 24.613281 L 7.019531 65.535156 C 7.019531 74.804688 14.539062 82.316406 23.808594 82.300781 "/>
<g clip-path="url(#clip-0)">
<g clip-path="url(#clip-1)">
<path fill-rule="nonzero" fill="url(#linear-pattern-0)" d="M 237.949219 27.183594 L 3.914062 261.21875 L 237.949219 495.253906 L 471.984375 261.21875 Z M 237.949219 27.183594 "/>
</g>
</g>
<g clip-path="url(#clip-2)">
<g clip-path="url(#clip-3)">
<path fill-rule="nonzero" fill="url(#linear-pattern-1)" d="M 232.582031 -216.703125 L -167.996094 183.875 L 232.582031 584.457031 L 633.164062 183.875 Z M 232.582031 -216.703125 "/>
</g>
</g>
<path fill-rule="nonzero" fill="#2e3190" fill-opacity="1" d="M 15.367188 393.996094 L 7.28125 393.996094 L 7.28125 388.96875 L 28.144531 388.96875 L 28.144531 393.996094 L 20.058594 393.996094 L 20.058594 420.199219 L 15.367188 420.199219 Z M 15.367188 393.996094 "/>
<path fill-rule="nonzero" fill="#2e3190" fill-opacity="1" d="M 88.964844 402.203125 C 89.636719 402.203125 90.308594 402.164062 90.976562 402.089844 C 91.648438 402.019531 92.261719 401.839844 92.820312 401.5625 C 93.382812 401.285156 93.832031 400.855469 94.179688 400.28125 C 94.527344 399.710938 94.703125 398.910156 94.703125 397.878906 C 94.703125 396.96875 94.542969 396.230469 94.21875 395.671875 C 93.894531 395.113281 93.472656 394.695312 92.953125 394.414062 C 92.429688 394.136719 91.851562 393.953125 91.21875 393.863281 C 90.585938 393.777344 89.972656 393.730469 89.375 393.730469 L 85.316406 393.730469 L 85.316406 402.203125 Z M 80.621094 388.96875 L 89.785156 388.96875 C 91.050781 388.96875 92.273438 389.109375 93.457031 389.386719 C 94.632812 389.667969 95.683594 390.144531 96.601562 390.820312 C 97.519531 391.496094 98.253906 392.410156 98.800781 393.554688 C 99.347656 394.703125 99.621094 396.160156 99.621094 397.921875 C 99.621094 400.1875 99.09375 402.085938 98.035156 403.613281 C 96.980469 405.140625 95.472656 406.070312 93.511719 406.390625 L 100.515625 420.199219 L 94.851562 420.199219 L 88.742188 406.964844 L 85.316406 406.964844 L 85.316406 420.199219 L 80.621094 420.199219 Z M 80.621094 388.96875 "/>
<path fill-rule="nonzero" fill="#2e3190" fill-opacity="1" d="M 168.496094 408.289062 L 164.4375 395.585938 L 160.304688 408.289062 Z M 162.539062 388.96875 L 166.597656 388.96875 L 177.960938 420.199219 L 172.597656 420.199219 L 170.136719 413.050781 L 158.699219 413.050781 L 156.316406 420.199219 L 151.0625 420.199219 Z M 162.539062 388.96875 "/>
<path fill-rule="nonzero" fill="#2e3190" fill-opacity="1" d="M 225.457031 388.96875 L 230.855469 388.96875 L 238.046875 412.566406 L 245.460938 388.96875 L 250.527344 388.96875 L 239.871094 420.199219 L 235.8125 420.199219 Z M 225.457031 388.96875 "/>
<path fill-rule="nonzero" fill="#2e3190" fill-opacity="1" d="M 301.992188 388.96875 L 319.460938 388.96875 L 319.460938 393.996094 L 306.683594 393.996094 L 306.683594 401.671875 L 318.792969 401.671875 L 318.792969 406.699219 L 306.683594 406.699219 L 306.683594 415.171875 L 320.132812 415.171875 L 320.132812 420.199219 L 301.992188 420.199219 Z M 301.992188 388.96875 "/>
<path fill-rule="nonzero" fill="#2e3190" fill-opacity="1" d="M 375.3125 388.96875 L 380.003906 388.96875 L 380.003906 415.171875 L 391.21875 415.171875 L 391.21875 420.199219 L 375.3125 420.199219 Z M 375.3125 388.96875 "/>
<path fill-rule="nonzero" fill="#2e3190" fill-opacity="1" d="M 454.277344 395.671875 C 453.78125 394.820312 453.117188 394.195312 452.285156 393.796875 C 451.453125 393.402344 450.578125 393.203125 449.660156 393.203125 C 449.113281 393.203125 448.585938 393.277344 448.078125 393.421875 C 447.566406 393.570312 447.105469 393.804688 446.699219 394.128906 C 446.289062 394.453125 445.957031 394.871094 445.710938 395.386719 C 445.460938 395.902344 445.335938 396.511719 445.335938 397.21875 C 445.335938 398.277344 445.648438 399.085938 446.269531 399.644531 C 446.890625 400.203125 447.660156 400.6875 448.578125 401.097656 C 449.496094 401.511719 450.503906 401.90625 451.597656 402.289062 C 452.6875 402.671875 453.695312 403.199219 454.613281 403.878906 C 455.53125 404.554688 456.300781 405.449219 456.921875 406.570312 C 457.542969 407.6875 457.855469 409.171875 457.855469 411.023438 C 457.855469 412.699219 457.59375 414.164062 457.074219 415.414062 C 456.550781 416.664062 455.847656 417.699219 454.96875 418.523438 C 454.085938 419.347656 453.0625 419.964844 451.894531 420.375 C 450.726562 420.785156 449.496094 420.992188 448.207031 420.992188 C 446.566406 420.992188 444.988281 420.667969 443.476562 420.023438 C 441.960938 419.375 440.65625 418.289062 439.5625 416.757812 L 443.101562 412.699219 C 443.671875 413.730469 444.425781 414.53125 445.355469 415.105469 C 446.289062 415.675781 447.277344 415.964844 448.320312 415.964844 C 448.863281 415.964844 449.410156 415.875 449.957031 415.699219 C 450.503906 415.523438 451 415.257812 451.449219 414.90625 C 451.894531 414.554688 452.253906 414.105469 452.527344 413.558594 C 452.800781 413.015625 452.9375 412.390625 452.9375 411.6875 C 452.9375 410.539062 452.625 409.65625 452.007812 409.039062 C 451.386719 408.421875 450.613281 407.898438 449.695312 407.472656 C 448.777344 407.046875 447.769531 406.640625 446.679688 406.257812 C 445.585938 405.878906 444.582031 405.355469 443.660156 404.695312 C 442.742188 404.03125 441.972656 403.148438 441.351562 402.046875 C 440.730469 400.945312 440.421875 399.464844 440.421875 397.613281 C 440.421875 395.996094 440.699219 394.601562 441.257812 393.421875 C 441.816406 392.246094 442.550781 391.269531 443.457031 390.488281 C 444.363281 389.710938 445.398438 389.128906 446.566406 388.746094 C 447.734375 388.363281 448.925781 388.175781 450.144531 388.175781 C 451.535156 388.175781 452.882812 388.425781 454.183594 388.925781 C 455.488281 389.425781 456.664062 390.246094 457.707031 391.394531 Z M 454.277344 395.671875 "/>
<path fill-rule="nonzero" fill="#2e3190" fill-opacity="1" d="M 17.402344 466.8125 C 17.402344 465.28125 16.210938 464.066406 14.703125 464.066406 L 9.625 464.066406 L 9.625 469.585938 L 14.703125 469.585938 C 16.210938 469.585938 17.402344 468.371094 17.402344 466.8125 M 9.625 456.796875 L 9.625 462 L 14.167969 462 C 15.578125 462 16.699219 460.859375 16.699219 459.398438 C 16.699219 457.964844 15.578125 456.796875 14.167969 456.796875 Z M 19.636719 466.886719 C 19.636719 469.609375 17.449219 471.699219 14.703125 471.699219 L 7.363281 471.699219 L 7.363281 454.683594 L 14.167969 454.683594 C 16.820312 454.683594 18.933594 456.699219 18.933594 459.324219 C 18.933594 460.859375 18.203125 462.097656 17.085938 462.875 C 18.617188 463.605469 19.636719 465.039062 19.636719 466.886719 "/>
<path fill-rule="nonzero" fill="#2e3190" fill-opacity="1" d="M 29.96875 464.746094 L 38.085938 464.746094 C 37.722656 462.339844 35.996094 461.222656 34.171875 461.222656 C 31.890625 461.222656 30.308594 462.632812 29.96875 464.746094 M 34.367188 470.023438 C 36.046875 470.023438 37.261719 469.246094 37.871094 468.246094 L 39.667969 469.269531 C 38.597656 470.921875 36.75 472.015625 34.320312 472.015625 C 30.40625 472.015625 27.804688 469.269531 27.804688 465.621094 C 27.804688 462.023438 30.382812 459.230469 34.171875 459.230469 C 37.84375 459.230469 40.226562 462.242188 40.226562 465.648438 C 40.226562 465.960938 40.203125 466.277344 40.15625 466.59375 L 29.96875 466.59375 C 30.382812 468.78125 32.109375 470.023438 34.367188 470.023438 "/>
<path fill-rule="nonzero" fill="#2e3190" fill-opacity="1" d="M 59.019531 465.621094 C 59.019531 463.144531 57.144531 461.269531 54.691406 461.269531 C 52.261719 461.269531 50.386719 463.144531 50.386719 465.621094 C 50.386719 468.101562 52.261719 469.976562 54.691406 469.976562 C 57.144531 469.976562 59.019531 468.101562 59.019531 465.621094 M 61.132812 454.683594 L 61.132812 471.699219 L 59.019531 471.699219 L 59.019531 469.609375 C 58.046875 471.09375 56.488281 472.015625 54.425781 472.015625 C 51.046875 472.015625 48.273438 469.21875 48.273438 465.621094 C 48.273438 462.023438 51.046875 459.230469 54.425781 459.230469 C 56.488281 459.230469 58.046875 460.152344 59.019531 461.636719 L 59.019531 454.683594 Z M 61.132812 454.683594 "/>
<path fill-rule="nonzero" fill="#2e3190" fill-opacity="1" d="M 83.277344 454.195312 L 85.390625 454.195312 L 85.390625 476.5625 L 83.277344 476.5625 Z M 83.277344 454.195312 "/>
<path fill-rule="nonzero" fill="#2e3190" fill-opacity="1" d="M 105.398438 466.8125 C 105.398438 465.28125 104.207031 464.066406 102.699219 464.066406 L 97.621094 464.066406 L 97.621094 469.585938 L 102.699219 469.585938 C 104.207031 469.585938 105.398438 468.371094 105.398438 466.8125 M 97.621094 456.796875 L 97.621094 462 L 102.164062 462 C 103.574219 462 104.691406 460.859375 104.691406 459.398438 C 104.691406 457.964844 103.574219 456.796875 102.164062 456.796875 Z M 107.636719 466.886719 C 107.636719 469.609375 105.449219 471.699219 102.699219 471.699219 L 95.359375 471.699219 L 95.359375 454.683594 L 102.164062 454.683594 C 104.816406 454.683594 106.929688 456.699219 106.929688 459.324219 C 106.929688 460.859375 106.203125 462.097656 105.082031 462.875 C 106.613281 463.605469 107.636719 465.039062 107.636719 466.886719 "/>
<path fill-rule="nonzero" fill="#2e3190" fill-opacity="1" d="M 122.316406 459.328125 L 122.316406 461.539062 C 120.492188 461.464844 118.523438 462.390625 118.523438 465.257812 L 118.523438 471.699219 L 116.410156 471.699219 L 116.410156 459.546875 L 118.523438 459.546875 L 118.523438 461.585938 C 119.304688 459.886719 120.785156 459.328125 122.316406 459.328125 "/>
<path fill-rule="nonzero" fill="#2e3190" fill-opacity="1" d="M 131.527344 464.746094 L 139.648438 464.746094 C 139.285156 462.339844 137.558594 461.222656 135.734375 461.222656 C 133.449219 461.222656 131.871094 462.632812 131.527344 464.746094 M 135.929688 470.023438 C 137.605469 470.023438 138.820312 469.246094 139.429688 468.246094 L 141.230469 469.269531 C 140.160156 470.921875 138.3125 472.015625 135.878906 472.015625 C 131.964844 472.015625 129.363281 469.269531 129.363281 465.621094 C 129.363281 462.023438 131.941406 459.230469 135.734375 459.230469 C 139.40625 459.230469 141.789062 462.242188 141.789062 465.648438 C 141.789062 465.960938 141.765625 466.277344 141.714844 466.59375 L 131.527344 466.59375 C 131.941406 468.78125 133.667969 470.023438 135.929688 470.023438 "/>
<path fill-rule="nonzero" fill="#2e3190" fill-opacity="1" d="M 160.578125 465.621094 C 160.578125 463.144531 158.707031 461.269531 156.25 461.269531 C 153.820312 461.269531 151.949219 463.144531 151.949219 465.621094 C 151.949219 468.101562 153.820312 469.976562 156.25 469.976562 C 158.707031 469.976562 160.578125 468.101562 160.578125 465.621094 M 162.691406 459.542969 L 162.691406 471.699219 L 160.578125 471.699219 L 160.578125 469.609375 C 159.605469 471.09375 158.050781 472.015625 155.984375 472.015625 C 152.605469 472.015625 149.832031 469.21875 149.832031 465.621094 C 149.832031 462.023438 152.605469 459.230469 155.984375 459.230469 C 158.050781 459.230469 159.605469 460.152344 160.578125 461.636719 L 160.578125 459.542969 Z M 162.691406 459.542969 "/>
<path fill-rule="nonzero" fill="#2e3190" fill-opacity="1" d="M 179.878906 471.699219 L 174.335938 465.9375 L 174.335938 471.699219 L 172.222656 471.699219 L 172.222656 454.683594 L 174.335938 454.683594 L 174.335938 464.917969 L 179.585938 459.546875 L 182.308594 459.546875 L 176.5 465.429688 L 182.503906 471.699219 Z M 179.878906 471.699219 "/>
<path fill-rule="nonzero" fill="#2e3190" fill-opacity="1" d="M 193.832031 459.179688 L 193.832031 459.546875 L 197.042969 459.546875 L 197.042969 461.585938 L 193.832031 461.585938 L 193.832031 471.699219 L 191.71875 471.699219 L 191.71875 461.585938 L 189.773438 461.585938 L 189.773438 459.546875 L 191.71875 459.546875 L 191.71875 459.179688 C 191.71875 455.949219 193.566406 454.125 197.042969 454.367188 L 197.042969 456.410156 C 194.925781 456.238281 193.832031 457.066406 193.832031 459.179688 "/>
<path fill-rule="nonzero" fill="#2e3190" fill-opacity="1" d="M 214.371094 465.621094 C 214.371094 463.144531 212.5 461.269531 210.046875 461.269531 C 207.613281 461.269531 205.742188 463.144531 205.742188 465.621094 C 205.742188 468.101562 207.613281 469.976562 210.046875 469.976562 C 212.5 469.976562 214.371094 468.101562 214.371094 465.621094 M 216.488281 459.542969 L 216.488281 471.699219 L 214.371094 471.699219 L 214.371094 469.609375 C 213.398438 471.09375 211.84375 472.015625 209.777344 472.015625 C 206.398438 472.015625 203.628906 469.21875 203.628906 465.621094 C 203.628906 462.023438 206.398438 459.230469 209.777344 459.230469 C 211.84375 459.230469 213.398438 460.152344 214.371094 461.636719 L 214.371094 459.542969 Z M 216.488281 459.542969 "/>
<path fill-rule="nonzero" fill="#2e3190" fill-opacity="1" d="M 234.621094 468.371094 C 234.621094 470.628906 232.675781 472.015625 230.074219 472.015625 C 227.644531 472.015625 225.941406 470.847656 225.238281 469.171875 L 227.0625 468.125 C 227.449219 469.292969 228.570312 470.023438 230.074219 470.023438 C 231.363281 470.023438 232.480469 469.5625 232.480469 468.371094 C 232.480469 465.769531 225.675781 467.25 225.675781 462.851562 C 225.675781 460.710938 227.523438 459.230469 229.980469 459.230469 C 231.972656 459.230469 233.578125 460.175781 234.355469 461.757812 L 232.582031 462.753906 C 232.117188 461.660156 231.046875 461.199219 229.980469 461.199219 C 228.886719 461.199219 227.816406 461.734375 227.816406 462.828125 C 227.816406 465.425781 234.621094 463.898438 234.621094 468.371094 "/>
<path fill-rule="nonzero" fill="#2e3190" fill-opacity="1" d="M 246.339844 461.585938 L 246.339844 468.175781 C 246.339844 470.023438 247.410156 469.902344 249.570312 469.804688 L 249.570312 471.699219 C 245.925781 472.1875 244.222656 471.214844 244.222656 468.175781 L 244.222656 461.585938 L 241.816406 461.585938 L 241.816406 459.546875 L 244.222656 459.546875 L 244.222656 456.773438 L 246.339844 456.140625 L 246.339844 459.546875 L 249.570312 459.546875 L 249.570312 461.585938 Z M 246.339844 461.585938 "/>
<path fill-rule="nonzero" fill="#2e3190" fill-opacity="1" d="M 271.085938 454.195312 L 273.199219 454.195312 L 273.199219 476.5625 L 271.085938 476.5625 Z M 271.085938 454.195312 "/>
<path fill-rule="nonzero" fill="#2e3190" fill-opacity="1" d="M 293.207031 466.8125 C 293.207031 465.28125 292.015625 464.066406 290.507812 464.066406 L 285.425781 464.066406 L 285.425781 469.585938 L 290.507812 469.585938 C 292.015625 469.585938 293.207031 468.371094 293.207031 466.8125 M 285.425781 456.796875 L 285.425781 462 L 289.972656 462 C 291.382812 462 292.5 460.859375 292.5 459.398438 C 292.5 457.964844 291.382812 456.796875 289.972656 456.796875 Z M 295.441406 466.886719 C 295.441406 469.609375 293.253906 471.699219 290.507812 471.699219 L 283.164062 471.699219 L 283.164062 454.683594 L 289.972656 454.683594 C 292.621094 454.683594 294.738281 456.699219 294.738281 459.324219 C 294.738281 460.859375 294.007812 462.097656 292.890625 462.875 C 294.421875 463.605469 295.441406 465.039062 295.441406 466.886719 "/>
<path fill-rule="nonzero" fill="#2e3190" fill-opacity="1" d="M 310.125 459.328125 L 310.125 461.539062 C 308.300781 461.464844 306.332031 462.390625 306.332031 465.257812 L 306.332031 471.699219 L 304.214844 471.699219 L 304.214844 459.546875 L 306.332031 459.546875 L 306.332031 461.585938 C 307.109375 459.886719 308.59375 459.328125 310.125 459.328125 "/>
<path fill-rule="nonzero" fill="#2e3190" fill-opacity="1" d="M 327.871094 465.621094 C 327.871094 463.167969 325.996094 461.292969 323.566406 461.292969 C 321.160156 461.292969 319.289062 463.167969 319.289062 465.621094 C 319.289062 468.078125 321.160156 469.949219 323.566406 469.949219 C 325.996094 469.949219 327.871094 468.078125 327.871094 465.621094 M 317.171875 465.621094 C 317.171875 462.023438 320.015625 459.230469 323.566406 459.230469 C 327.117188 459.230469 329.984375 462.023438 329.984375 465.621094 C 329.984375 469.21875 327.117188 472.015625 323.566406 472.015625 C 320.015625 472.015625 317.171875 469.21875 317.171875 465.621094 "/>
<path fill-rule="nonzero" fill="#2e3190" fill-opacity="1" d="M 348.871094 465.621094 C 348.871094 463.144531 347 461.269531 344.542969 461.269531 C 342.113281 461.269531 340.242188 463.144531 340.242188 465.621094 C 340.242188 468.101562 342.113281 469.976562 344.542969 469.976562 C 347 469.976562 348.871094 468.101562 348.871094 465.621094 M 350.988281 459.542969 L 350.988281 471.699219 L 348.871094 471.699219 L 348.871094 469.609375 C 347.898438 471.09375 346.34375 472.015625 344.277344 472.015625 C 340.898438 472.015625 338.125 469.21875 338.125 465.621094 C 338.125 462.023438 340.898438 459.230469 344.277344 459.230469 C 346.34375 459.230469 347.898438 460.152344 348.871094 461.636719 L 348.871094 459.542969 Z M 350.988281 459.542969 "/>
<path fill-rule="nonzero" fill="#2e3190" fill-opacity="1" d="M 370.578125 465.621094 C 370.578125 463.144531 368.707031 461.269531 366.25 461.269531 C 363.820312 461.269531 361.949219 463.144531 361.949219 465.621094 C 361.949219 468.101562 363.820312 469.976562 366.25 469.976562 C 368.707031 469.976562 370.578125 468.101562 370.578125 465.621094 M 372.695312 454.683594 L 372.695312 471.699219 L 370.578125 471.699219 L 370.578125 469.609375 C 369.605469 471.09375 368.050781 472.015625 365.984375 472.015625 C 362.605469 472.015625 359.832031 469.21875 359.832031 465.621094 C 359.832031 462.023438 362.605469 459.230469 365.984375 459.230469 C 368.050781 459.230469 369.605469 460.152344 370.578125 461.636719 L 370.578125 454.683594 Z M 372.695312 454.683594 "/>
<path fill-rule="nonzero" fill="#2e3190" fill-opacity="1" d="M 392.96875 465.621094 C 392.96875 463.144531 391.09375 461.269531 388.664062 461.269531 C 386.207031 461.269531 384.335938 463.144531 384.335938 465.621094 C 384.335938 468.101562 386.207031 469.976562 388.664062 469.976562 C 391.09375 469.976562 392.96875 468.101562 392.96875 465.621094 M 395.082031 465.621094 C 395.082031 469.21875 392.3125 472.015625 388.933594 472.015625 C 386.863281 472.015625 385.308594 471.09375 384.335938 469.609375 L 384.335938 471.699219 L 382.222656 471.699219 L 382.222656 454.683594 L 384.335938 454.683594 L 384.335938 461.636719 C 385.308594 460.152344 386.863281 459.230469 388.933594 459.230469 C 392.3125 459.230469 395.082031 462.023438 395.082031 465.621094 "/>
<path fill-rule="nonzero" fill="#2e3190" fill-opacity="1" d="M 413.992188 465.621094 C 413.992188 463.144531 412.121094 461.269531 409.667969 461.269531 C 407.234375 461.269531 405.363281 463.144531 405.363281 465.621094 C 405.363281 468.101562 407.234375 469.976562 409.667969 469.976562 C 412.121094 469.976562 413.992188 468.101562 413.992188 465.621094 M 416.109375 459.542969 L 416.109375 471.699219 L 413.992188 471.699219 L 413.992188 469.609375 C 413.019531 471.09375 411.464844 472.015625 409.398438 472.015625 C 406.019531 472.015625 403.25 469.21875 403.25 465.621094 C 403.25 462.023438 406.019531 459.230469 409.398438 459.230469 C 411.464844 459.230469 413.019531 460.152344 413.992188 461.636719 L 413.992188 459.542969 Z M 416.109375 459.542969 "/>
<path fill-rule="nonzero" fill="#2e3190" fill-opacity="1" d="M 436.40625 464.238281 L 436.40625 471.699219 L 434.289062 471.699219 L 434.289062 464.359375 C 434.289062 462.363281 433.148438 461.246094 431.277344 461.246094 C 429.332031 461.246094 427.75 462.390625 427.75 465.257812 L 427.75 471.699219 L 425.636719 471.699219 L 425.636719 459.542969 L 427.75 459.542969 L 427.75 461.292969 C 428.652344 459.859375 429.988281 459.230469 431.691406 459.230469 C 434.535156 459.230469 436.40625 461.125 436.40625 464.238281 "/>
<path fill-rule="nonzero" fill="#2e3190" fill-opacity="1" d="M 455.730469 465.621094 C 455.730469 463.144531 453.859375 461.269531 451.40625 461.269531 C 448.972656 461.269531 447.101562 463.144531 447.101562 465.621094 C 447.101562 468.101562 448.972656 469.976562 451.40625 469.976562 C 453.859375 469.976562 455.730469 468.101562 455.730469 465.621094 M 457.847656 454.683594 L 457.847656 471.699219 L 455.730469 471.699219 L 455.730469 469.609375 C 454.757812 471.09375 453.203125 472.015625 451.136719 472.015625 C 447.757812 472.015625 444.988281 469.21875 444.988281 465.621094 C 444.988281 462.023438 447.757812 459.230469 451.136719 459.230469 C 453.203125 459.230469 454.757812 460.152344 455.730469 461.636719 L 455.730469 454.683594 Z M 457.847656 454.683594 "/>
</svg>
